<?xml version="1.0" encoding="UTF-8"?>
<svg width="24px" height="24px" viewBox="0 0 24 24" version="1.1" xmlns="http://www.w3.org/2000/svg">
    <g stroke="none" stroke-width="1" fill="none" fill-rule="evenodd">
        <path d="M20,2 C18.6,2 17.5,3.1 17.5,4.5 C17.5,5.8 18.1,6.5 19,7.5 C19.5,8 20,8.5 20,9.5 C20,10.5 19.5,11 19,11.5 C17.9,12.5 16.6,13 15,13 C12.4,13 10.1,11.5 9,9.5 L11,9.5 C13.2,9.5 15,7.7 15,5.5 C15,3.3 13.2,1.5 11,1.5 C8.8,1.5 7,3.3 7,5.5 C7,7.1 7.9,8.4 9.3,9.1 C9.1,9.4 9,9.7 9,10 C9,10.3 9.1,10.6 9.3,10.9 C7.9,11.6 7,12.9 7,14.5 C7,16.7 8.8,18.5 11,18.5 L13,18.5 C13,20.4 11.4,22 9.5,22 L7.5,22 C7.5,22 7,22 7,21.5 C7,21 7.5,21 7.5,21 L9.5,21 C10.9,21 12,19.9 12,18.5 L11,18.5 C8.2,18.5 6,16.3 6,13.5 C6,12.3 6.4,11.1 7.1,10.2 C6.4,9.2 6,8 6,6.5 C6,2.9 8.9,0 12.5,0 C16.1,0 19,2.9 19,6.5 C19,7.2 18.9,7.9 18.7,8.5 C19.9,8.2 21.2,7.5 22,6.5 C22.4,6 22.5,5.5 22.5,4.5 C22.5,3.1 21.4,2 20,2 Z" fill="currentColor" fill-rule="nonzero"></path>
    </g>
</svg>
