<?xml version="1.0" encoding="UTF-8"?>
<svg width="24px" height="24px" viewBox="0 0 24 24" version="1.1" xmlns="http://www.w3.org/2000/svg">
    <g stroke="none" stroke-width="1" fill="none" fill-rule="evenodd">
        <path d="M12,22 C15.3,22 18,19.3 18,16 L6,16 C6,19.3 8.7,22 12,22 Z" fill="currentColor" fill-rule="nonzero"></path>
        <path d="M12,2 C9.3,2 6.8,3.3 5.4,5.5 C4.5,7 4,8.7 4,10.5 C4,12.3 4.5,14 5.4,15.5 L18.6,15.5 C19.5,14 20,12.3 20,10.5 C20,8.7 19.5,7 18.6,5.5 C17.2,3.3 14.7,2 12,2 Z M12,4 C13.9,4 15.7,4.9 16.7,6.5 C17.4,7.6 17.8,8.9 17.9,10.2 C16.3,9.4 14.2,9 12,9 C9.8,9 7.7,9.4 6.1,10.2 C6.2,8.9 6.6,7.6 7.3,6.5 C8.3,4.9 10.1,4 12,4 Z" fill="currentColor" fill-rule="nonzero"></path>
    </g>
</svg>
