<?xml version="1.0" encoding="UTF-8"?>
<svg width="32px" height="32px" viewBox="0 0 32 32" version="1.1" xmlns="http://www.w3.org/2000/svg">
    <g stroke="none" stroke-width="1" fill="none" fill-rule="evenodd">
        <circle fill="#8c4b2a" cx="16" cy="16" r="16"></circle>
        <path d="M16,28 C20.4,28 24,24.4 24,20 L8,20 C8,24.4 11.6,28 16,28 Z" fill="#ffffff" fill-rule="nonzero"></path>
        <path d="M16,4 C12.4,4 9.1,5.7 7.2,8.3 C6,10.3 5.3,12.6 5.3,15 C5.3,17.4 6,19.7 7.2,21.7 L24.8,21.7 C26,19.7 26.7,17.4 26.7,15 C26.7,12.6 26,10.3 24.8,8.3 C22.9,5.7 19.6,4 16,4 Z M16,6.7 C18.5,6.7 20.9,7.9 22.3,9.9 C23.2,11.3 23.7,13.1 23.9,15 C21.8,13.9 19,13.3 16,13.3 C13,13.3 10.2,13.9 8.1,15 C8.3,13.1 8.8,11.3 9.7,9.9 C11.1,7.9 13.5,6.7 16,6.7 Z" fill="#ffffff" fill-rule="nonzero"></path>
    </g>
</svg>
